Coordinates
nRows=8
nColumns=24

# SIMM Motion File Header:
name Coordinates
datacolumns 24
datarows 8
otherdata 1
range 0.17166999999999999000 0.17867000000000000000
endheader
time	pelvis_tx	pelvis_ty	pelvis_tz	pelvis_tilt	pelvis_list	pelvis_rotation	hip_flexion_r	hip_adduction_r	hip_rotation_r	knee_angle_r	ankle_angle_r	subtalar_angle_r	mtp_angle_r	hip_flexion_l	hip_adduction_l	hip_rotation_l	knee_angle_l	ankle_angle_l	subtalar_angle_l	mtp_angle_l	lumbar_extension	lumbar_bending	lumbar_rotation
      0.17166999999999999000	      0.64838121925183501000	      0.94261802993553978000	     -0.19442139007750336000	      0.02956865402466173800	     -2.50344826788039180000	      4.05279104879666010000	     13.26946313273989900000	      4.68370536392673300000	      4.70176003263041320000	    -16.96816961269941600000	      3.88790768515130920000	     -0.00000000000001031670	      0.00000000000000176075	      8.79307725422127180000	     -4.01857718330159220000	     -0.14445972331063697000	    -61.60899781441798200000	    -17.69412975685360600000	      0.00000000000000008524	     -0.00000000000000079670	     -2.07734101058113300000	      6.60812320126249110000	     -1.13124912161980440000
      0.17266999999999999000	      0.64977401537697721000	      0.94280501616589896000	     -0.19436184250973826000	      0.02681708241952117400	     -2.46624280406917280000	      4.06880341932600760000	     13.15163339484160000000	      4.66266991054138200000	      4.73447428808934670000	    -16.93484853544864800000	      3.96207961962858720000	     -0.00000000000001055601	      0.00000000000000167863	      8.99101619052467170000	     -3.94120288543500140000	     -0.04742065806639151500	    -61.72531510223409900000	    -17.42910595957593900000	      0.00000000000000008291	     -0.00000000000000078816	     -2.08171831573208040000	      6.55453765209692030000	     -1.07841648039855630000
      0.17366999999999999000	      0.65116686255438672000	      0.94299199011157386000	     -0.19430156154131137000	      0.02370150360731528400	     -2.42861155135011410000	      4.08441359903185930000	     13.03366993430600700000	      4.64129800060660710000	      4.76782141924800660000	    -16.90043046960711600000	      4.03630054003691980000	     -0.00000000000001079774	      0.00000000000000159362	      9.18853988326469030000	     -3.86352380186091620000	      0.04800563658241095700	    -61.83801922354297200000	    -17.16742688195547100000	      0.00000000000000007474	     -0.00000000000000076490	     -2.08551410120329850000	      6.50027164199751710000	     -1.02558282765322130000
      0.17466999999999999000	      0.65255977956036249000	      0.94317894569319072000	     -0.19424028683660921000	      0.02009182393784608400	     -2.39040379402077900000	      4.09947874240616450000	     12.91552632500966200000	      4.61947056356716420000	      4.80202536513381780000	    -16.86452652087028900000	      4.11059515224370300000	     -0.00000000000001104268	      0.00000000000000150444	      9.38550172282963580000	     -3.78543259045205140000	      0.14124561524423862000	    -61.94582756004766800000	    -16.91027974852224600000	      0.00000000000000005860	     -0.00000000000000072166	     -2.08852075426832110000	      6.44508415928156260000	     -0.97274834764280182000
      0.17566999999999999000	      0.65395269656633814000	      0.94336590127480768000	     -0.19417901213190705000	      0.01648214426837688700	     -2.35219603669144380000	      4.11454388578046970000	     12.79738271571331700000	      4.59764312652772130000	      4.83622931101962990000	    -16.82862257213346500000	      4.18488976445048610000	     -0.00000000000001128763	      0.00000000000000141525	      9.58246356239458130000	     -3.70734137904318710000	      0.23448559390606630000	    -62.05363589655236500000	    -16.65313261508902400000	      0.00000000000000004247	     -0.00000000000000067843	     -2.09152740733334360000	      6.38989667656560820000	     -0.91991386763238248000
      0.17666999999999999000	      0.65534603025666427000	      0.94355273270253848000	     -0.19411581465202207000	      0.01189277058222649000	     -2.31300975206866260000	      4.12848084229434600000	     12.67887045070786000000	      4.57505893602017990000	      4.87213716461535550000	    -16.78965623673534300000	      4.25859643486262930000	     -0.00000000000001156003	      0.00000000000000135123	      9.77824036368481410000	     -3.62875969873090520000	      0.32306242382242473000	    -62.15182263870799800000	    -16.40535364683863100000	      0.00000000000000002729	     -0.00000000000000063969	     -2.09292615296617330000	      6.33313512240477470000	     -0.86723749065429567000
      0.17766999999999999000	      0.65673939903624645000	      0.94373955367519113000	     -0.19405245525400752000	      0.00722089623549297160	     -2.27374106503580900000	      4.14232279347016430000	     12.56032714096903600000	      4.55241101881843320000	      4.90818850537058890000	    -16.75043201579519100000	      4.33225359431970250000	     -0.00000000000001183474	      0.00000000000000128933	      9.97391737214298680000	     -3.55013671571814850000	      0.41124656699644513000	    -62.24919914024140900000	    -16.15836357777806500000	      0.00000000000000001219	     -0.00000000000000060133	     -2.09418949568436470000	      6.27624101467946360000	     -0.81457442763381760000
      0.17867000000000000000	      0.65813310144686343000	      0.94392652754070860000	     -0.19398821971923325000	      0.00227918545800285390	     -2.23408513243651980000	      4.15558888048535910000	     12.44143124536433300000	      4.52948191362869410000	      4.94513584630784560000	    -16.70974364287525300000	      4.40451414754947730000	     -0.00000000000001209915	      0.00000000000000119800	     10.16883898115647600000	     -3.47142219039879850000	      0.49722321969650135000	    -62.34238951770846200000	    -15.91582660324395700000	      0.00000000000000000089	     -0.00000000000000057743	     -2.09492769573585270000	      6.21875111088418290000	     -0.76197495824891215000
